<?xml version="1.0" standalone="no"?><!DOCTYPE svg PUBLIC "-//W3C//DTD SVG 1.1//EN" "http://www.w3.org/Graphics/SVG/1.1/DTD/svg11.dtd"><svg t="1733802755409" class="icon" viewBox="0 0 1024 1024" version="1.1" xmlns="http://www.w3.org/2000/svg" p-id="22713" width="128" height="128" xmlns:xlink="http://www.w3.org/1999/xlink"><path d="M1024 512c0 282.766222-229.233778 512-512 512S0 794.766222 0 512 229.233778 0 512 0s512 229.233778 512 512z m-170.666667-56.888889c0-219.932444-178.289778-398.222222-398.222222-398.222222S56.888889 235.178667 56.888889 455.111111s178.289778 398.222222 398.222222 398.222222 398.222222-178.289778 398.222222-398.222222z m-291.214222-100.664889l-94.492444-26.168889a1742.506667 1742.506667 0 0 0-48.782223 121.656889 611.157333 611.157333 0 0 1-62.890666-7.281778c-35.754667-6.314667-51.911111-19.114667-48.497778-38.428444 17.095111-32.142222 38.087111-57.457778 62.947556-75.946667l-23.04-9.784889c118.186667-2.474667 231.850667-4.437333 340.992-5.973333l-15.672889-94.890667c-134.144-0.768-276.679111 1.422222-427.52 6.570667l9.642666 89.400889c-25.457778 28.984889-41.073778 59.904-46.876444 92.785778-5.688889 32.426667 0 60.131556 17.123555 83.057778 18.688 26.168889 51.655111 43.434667 98.901334 51.768888l21.560889 3.811556c11.093333 1.934222 24.746667 3.697778 41.016889 5.319111a1900.145778 1900.145778 0 0 0-41.329778 173.169778l95.004444 26.908444a2343.281778 2343.281778 0 0 1 48.497778-192.227555c7.566222 0.483556 15.36 0.796444 23.352889 0.938666 77.653333 3.953778 138.296889 4.892444 181.873778 2.844445l-1.166223-105.073778c-66.616889 0.568889-123.306667 0.085333-170.069333-1.365333a2180.323556 2180.323556 0 0 1 39.424-101.091556z m-255.374222 223.118222l-81.777778-44.288a24787.256889 24787.256889 0 0 0-84.878222 131.84l81.152 44.174223a1576.903111 1576.903111 0 0 1 85.504-131.697778zM667.164444 728.177778a425.073778 425.073778 0 0 0-101.888-139.320889l-73.671111 53.731555c39.338667 48.440889 72.448 94.947556 99.328 139.491556l76.231111-53.902222z" fill="#FD5238" p-id="22714"></path></svg>