<?xml version="1.0" standalone="no"?><!DOCTYPE svg PUBLIC "-//W3C//DTD SVG 1.1//EN" "http://www.w3.org/Graphics/SVG/1.1/DTD/svg11.dtd"><svg t="1733802680556" class="icon" viewBox="0 0 1024 1024" version="1.1" xmlns="http://www.w3.org/2000/svg" p-id="21336" width="128" height="128" xmlns:xlink="http://www.w3.org/1999/xlink"><path d="M748.544 914.944c-143.872 83.968-322.048 84.992-466.944 2.56C136.704 834.56 47.104 680.96 46.08 514.56c-0.512-166.912 87.552-321.536 231.424-405.504 144.384-83.968 322.048-84.992 466.944-2.56 144.896 82.432 234.496 236.544 235.52 402.944 1.024 166.912-87.04 321.536-231.424 405.504z" fill="#FF634F" p-id="21337"></path><path d="M115.2 420.864a366.08 366.08 0 1 0 732.16 0 366.08 366.08 0 1 0-732.16 0z" fill="#FFFFFF" p-id="21338"></path><path d="M434.688 203.264c26.624 6.144 45.568 19.456 57.856 40.448 11.264 21.504 14.336 41.984 9.728 61.952l-2.56 10.24c-3.584 16.896-11.776 35.84-24.064 57.344-15.36 27.136-36.352 53.76-63.488 79.872 11.264 5.12 22.528 9.728 33.792 14.336l-41.472 88.576c-25.088-9.728-47.616-20.48-68.608-31.744-24.064 20.48-49.152 39.424-75.264 57.344L216.576 499.2c13.824-10.24 27.136-20.48 39.936-30.208-10.24-8.192-18.944-16.896-27.136-25.6l47.104-82.432c16.384 16.384 34.304 30.72 52.736 44.032 23.04-21.504 41.472-41.984 55.296-61.952 12.288-15.872 19.456-28.672 21.504-38.912 0.512-2.56 0.512-5.12-1.024-6.656-1.024-2.048-3.072-3.072-6.144-3.584-11.776-2.56-26.112-3.584-43.52-3.072-20.992 2.56-40.96 7.68-59.392 14.336l-13.824-101.888c15.872-4.608 36.864-7.68 62.464-8.192 30.72-1.536 60.416 1.536 90.112 8.192z m240.64 36.864c27.136 6.144 46.592 20.992 58.368 44.544 11.264 24.064 14.336 47.616 8.704 70.656l-2.56 11.776c-4.096 18.944-13.312 40.96-27.648 65.536-18.944 31.744-44.544 62.976-76.8 93.696 26.112 11.264 53.248 21.504 81.408 31.232l-41.472 88.576c-43.52-14.848-83.456-30.72-118.784-48.128-30.72 26.624-63.488 50.688-97.792 73.216l-45.568-85.504c18.432-13.312 35.84-26.112 52.224-38.912a328.923 328.923 0 0 1-30.72-21.504l47.104-82.432c19.456 13.312 39.424 25.6 60.928 37.888l6.144-6.144c28.16-25.6 50.688-50.176 68.096-74.24 14.336-18.944 23.04-34.304 25.6-46.08 1.536-6.656 2.048-12.288 2.048-16.896-0.512-4.608-2.048-7.168-3.584-7.68-12.288-3.072-27.648-4.096-45.568-4.096-21.504 2.56-42.496 7.168-61.952 13.824L519.68 238.08c16.384-4.608 37.888-7.168 64-8.192 30.72 0 61.44 3.072 91.648 10.24z" fill="#F15544" p-id="21339"></path></svg>